<?xml version="1.0" encoding="utf-8"?>
<!-- Generator: Adobe Illustrator 25.0.1, SVG Export Plug-In . SVG Version: 6.00 Build 0)  -->
<svg version="1.1" id="Layer_1" xmlns="http://www.w3.org/2000/svg" xmlns:xlink="http://www.w3.org/1999/xlink" x="0px" y="0px"
	 viewBox="0 0 300 85" style="enable-background:new 0 0 300 85;" xml:space="preserve">
<style type="text/css">
	.st0{fill:#E6E7E8;}
</style>
<rect y="40" width="54" height="5"/>
<rect x="246" y="40" width="54" height="5"/>
<rect x="21.5" y="40" transform="matrix(-1.836970e-16 1 -1 -1.836970e-16 94 -9)" width="60" height="5"/>
<rect x="218.5" y="40" transform="matrix(-1.836970e-16 1 -1 -1.836970e-16 291 -206)" width="60" height="5"/>
<rect x="234.12" y="74.44" transform="matrix(0.7071 -0.7071 0.7071 0.7071 16.7586 194.3432)" width="17.71" height="5"/>
<rect x="93.09" y="68.91" width="114" height="5"/>
<rect x="48.17" y="74.44" transform="matrix(0.7071 0.7071 -0.7071 0.7071 71.1094 -17.7887)" width="17.71" height="5"/>
<rect x="48.17" y="5.56" transform="matrix(-0.7071 0.7071 -0.7071 -0.7071 103.0498 -26.5691)" width="17.71" height="5"/>
<rect x="234.12" y="5.56" transform="matrix(-0.7071 -0.7071 0.7071 -0.7071 409.0821 185.563)" width="17.71" height="5"/>
<rect x="61.51" y="80" width="22.51" height="5"/>
<rect x="79.7" y="74.44" transform="matrix(0.7071 -0.7071 0.7071 0.7071 -28.4685 85.1555)" width="17.71" height="5"/>
<rect x="215.97" y="80" width="22.51" height="5"/>
<rect x="202.66" y="74.44" transform="matrix(0.7071 0.7071 -0.7071 0.7071 116.3564 -127.0247)" width="17.71" height="5"/>
<rect x="92.99" y="11.1" transform="matrix(-1 -4.849211e-07 4.849211e-07 -1 299.883 27.2005)" width="113.9" height="5"/>
<rect x="215.98" y="0.02" transform="matrix(-1 -1.057765e-06 1.057765e-06 -1 454.4636 5.0306)" width="22.51" height="5"/>
<rect x="202.59" y="5.57" transform="matrix(-0.7071 0.7071 -0.7071 -0.7071 366.6581 -135.7288)" width="17.71" height="5"/>
<rect x="61.51" y="0.02" transform="matrix(-1 -1.057765e-06 1.057765e-06 -1 145.5364 5.0302)" width="22.51" height="5"/>
<rect x="79.63" y="5.57" transform="matrix(-0.7071 -0.7071 0.7071 -0.7071 145.3474 76.3506)" width="17.71" height="5"/>
<rect x="110.57" y="38.5" transform="matrix(-1.836970e-16 1 -1 -1.836970e-16 179.4726 -94.4726)" class="st0" width="52.81" height="8"/>
<rect x="76.68" y="38.5" transform="matrix(-1.836970e-16 1 -1 -1.836970e-16 145.5851 -60.5851)" class="st0" width="52.81" height="8"/>
<rect x="152.68" y="38.51" transform="matrix(-1.836970e-16 1 -1 -1.836970e-16 221.5927 -136.5776)" class="st0" width="52.81" height="8"/>
<rect x="93.68" y="38.5" transform="matrix(-1.836970e-16 1 -1 -1.836970e-16 162.5851 -77.5851)" class="st0" width="52.81" height="8"/>
<rect x="170.68" y="38.51" transform="matrix(-1.836970e-16 1 -1 -1.836970e-16 239.5927 -154.5776)" class="st0" width="52.81" height="8"/>
<rect x="128.53" y="38.51" transform="matrix(-1.836970e-16 1 -1 -1.836970e-16 197.4406 -112.4256)" class="st0" width="52.81" height="8"/>
</svg>
