<svg id="Layer_1" data-name="Layer 1" xmlns="http://www.w3.org/2000/svg" viewBox="0 0 300 84.98"><defs><style>.cls-1{fill:#231f20;}.cls-2{fill:#e6e7e8;}</style></defs><rect class="cls-1" y="39.98" width="54" height="5"/><rect class="cls-1" x="246" y="39.98" width="54" height="5"/><rect class="cls-1" x="21.5" y="40" width="60" height="5" transform="translate(94 -9.02) rotate(90)"/><rect class="cls-1" x="218.5" y="40" width="60" height="5" transform="translate(291 -206.02) rotate(90)"/><rect class="cls-1" x="234.12" y="74.44" width="17.71" height="5" transform="translate(16.76 194.33) rotate(-45)"/><rect class="cls-1" x="93.09" y="68.9" width="114" height="5"/><rect class="cls-1" x="48.17" y="74.44" width="17.71" height="5" transform="translate(71.11 -17.8) rotate(45)"/><rect class="cls-1" x="48.17" y="5.56" width="17.71" height="5" transform="translate(103.05 -26.58) rotate(135)"/><rect class="cls-1" x="234.12" y="5.56" width="17.71" height="5" transform="translate(409.08 185.55) rotate(-135)"/><rect class="cls-1" x="61.51" y="79.98" width="22.51" height="5"/><rect class="cls-1" x="79.7" y="74.44" width="17.71" height="5" transform="translate(-28.47 85.14) rotate(-45)"/><rect class="cls-1" x="215.97" y="79.98" width="22.51" height="5"/><rect class="cls-1" x="202.66" y="74.44" width="17.71" height="5" transform="translate(116.36 -127.04) rotate(45)"/><rect class="cls-1" x="92.99" y="11.1" width="113.9" height="5" transform="translate(299.88 27.19) rotate(-180)"/><rect class="cls-1" x="215.98" y="0.02" width="22.51" height="5" transform="translate(454.46 5.02) rotate(-180)"/><rect class="cls-1" x="202.59" y="5.57" width="17.71" height="5" transform="translate(366.66 -135.74) rotate(135)"/><rect class="cls-1" x="61.51" y="0.02" width="22.51" height="5" transform="translate(145.54 5.02) rotate(-180)"/><rect class="cls-1" x="79.63" y="5.57" width="17.71" height="5" transform="translate(145.35 76.34) rotate(-135)"/><rect class="cls-2" x="76.68" y="38.5" width="52.81" height="8" transform="translate(145.59 -60.6) rotate(90)"/><rect class="cls-2" x="152.68" y="38.51" width="52.81" height="8" transform="translate(221.59 -136.59) rotate(90)"/><rect class="cls-2" x="102.68" y="38.5" width="52.81" height="8" transform="translate(171.59 -86.6) rotate(90)"/><rect class="cls-2" x="170.68" y="38.51" width="52.81" height="8" transform="translate(239.59 -154.59) rotate(90)"/></svg>